<svg xmlns="http://www.w3.org/2000/svg" viewBox="0 0 640 160"><text x="0" y="16" font-family="system-ui,sans-serif" font-size="14" fill="#7d8796">≈548,1M (548 102 468) tokens</text><rect class="barre" x="0.7" y="157.2" width="5.7" height="2.8" fill="#c47f1a"/><rect class="barre" x="7.8" y="158.1" width="5.7" height="1.9" fill="#c47f1a"/><rect class="barre" x="14.9" y="156.0" width="5.7" height="4.0" fill="#c47f1a"/><rect class="barre" x="22.0" y="158.7" width="5.7" height="1.3" fill="#c47f1a"/><rect class="barre" x="29.2" y="157.1" width="5.7" height="2.9" fill="#c47f1a"/><rect class="barre" x="36.3" y="155.7" width="5.7" height="4.3" fill="#c47f1a"/><rect class="barre" x="43.4" y="155.8" width="5.7" height="4.2" fill="#c47f1a"/><rect class="barre" x="50.5" y="155.2" width="5.7" height="4.8" fill="#c47f1a"/><rect class="barre" x="57.6" y="158.2" width="5.7" height="1.8" fill="#c47f1a"/><rect class="barre" x="64.7" y="158.4" width="5.7" height="1.6" fill="#c47f1a"/><rect class="barre" x="71.8" y="158.5" width="5.7" height="1.5" fill="#c47f1a"/><rect class="barre" x="78.9" y="158.2" width="5.7" height="1.8" fill="#c47f1a"/><rect class="barre" x="86.0" y="158.0" width="5.7" height="2.0" fill="#c47f1a"/><rect class="barre" x="93.2" y="158.0" width="5.7" height="2.0" fill="#c47f1a"/><rect class="barre" x="100.3" y="158.5" width="5.7" height="1.5" fill="#c47f1a"/><rect class="barre" x="107.4" y="158.0" width="5.7" height="2.0" fill="#c47f1a"/><rect class="barre" x="114.5" y="158.2" width="5.7" height="1.8" fill="#c47f1a"/><rect class="barre" x="121.6" y="157.0" width="5.7" height="3.0" fill="#c47f1a"/><rect class="barre" x="128.7" y="157.8" width="5.7" height="2.2" fill="#c47f1a"/><rect class="barre" x="135.8" y="157.6" width="5.7" height="2.4" fill="#c47f1a"/><rect class="barre" x="142.9" y="158.1" width="5.7" height="1.9" fill="#c47f1a"/><rect class="barre" x="150.0" y="153.6" width="5.7" height="6.4" fill="#c47f1a"/><rect class="barre" x="157.2" y="155.6" width="5.7" height="4.4" fill="#c47f1a"/><rect class="barre" x="164.3" y="153.7" width="5.7" height="6.3" fill="#c47f1a"/><rect class="barre" x="171.4" y="157.2" width="5.7" height="2.8" fill="#c47f1a"/><rect class="barre" x="178.5" y="153.8" width="5.7" height="6.2" fill="#c47f1a"/><rect class="barre" x="185.6" y="151.8" width="5.7" height="8.2" fill="#c47f1a"/><rect class="barre" x="192.7" y="154.9" width="5.7" height="5.1" fill="#c47f1a"/><rect class="barre" x="199.8" y="154.7" width="5.7" height="5.3" fill="#c47f1a"/><rect class="barre" x="206.9" y="155.0" width="5.7" height="5.0" fill="#c47f1a"/><rect class="barre" x="214.0" y="157.4" width="5.7" height="2.6" fill="#c47f1a"/><rect class="barre" x="221.2" y="158.4" width="5.7" height="1.6" fill="#c47f1a"/><rect class="barre" x="228.3" y="154.4" width="5.7" height="5.6" fill="#c47f1a"/><rect class="barre" x="235.4" y="155.3" width="5.7" height="4.7" fill="#c47f1a"/><rect class="barre" x="242.5" y="156.9" width="5.7" height="3.1" fill="#c47f1a"/><rect class="barre" x="249.6" y="156.8" width="5.7" height="3.2" fill="#c47f1a"/><rect class="barre" x="256.7" y="156.2" width="5.7" height="3.8" fill="#c47f1a"/><rect class="barre" x="263.8" y="157.1" width="5.7" height="2.9" fill="#c47f1a"/><rect class="barre" x="270.9" y="141.2" width="5.7" height="18.8" fill="#c47f1a"/><rect class="barre" x="278.0" y="156.4" width="5.7" height="3.6" fill="#c47f1a"/><rect class="barre" x="285.2" y="156.2" width="5.7" height="3.8" fill="#c47f1a"/><rect class="barre" x="292.3" y="158.0" width="5.7" height="2.0" fill="#c47f1a"/><rect class="barre" x="299.4" y="156.0" width="5.7" height="4.0" fill="#c47f1a"/><rect class="barre" x="306.5" y="157.1" width="5.7" height="2.9" fill="#c47f1a"/><rect class="barre" x="313.6" y="157.8" width="5.7" height="2.2" fill="#c47f1a"/><rect class="barre" x="320.7" y="155.6" width="5.7" height="4.4" fill="#c47f1a"/><rect class="barre" x="327.8" y="157.5" width="5.7" height="2.5" fill="#c47f1a"/><rect class="barre" x="334.9" y="156.1" width="5.7" height="3.9" fill="#c47f1a"/><rect class="barre" x="342.0" y="157.0" width="5.7" height="3.0" fill="#c47f1a"/><rect class="barre" x="349.2" y="155.8" width="5.7" height="4.2" fill="#c47f1a"/><rect class="barre" x="356.3" y="156.6" width="5.7" height="3.4" fill="#c47f1a"/><rect class="barre" x="363.4" y="149.8" width="5.7" height="10.2" fill="#c47f1a"/><rect class="barre" x="370.5" y="155.7" width="5.7" height="4.3" fill="#c47f1a"/><rect class="barre" x="377.6" y="157.9" width="5.7" height="2.1" fill="#c47f1a"/><rect class="barre" x="384.7" y="158.2" width="5.7" height="1.8" fill="#c47f1a"/><rect class="barre" x="391.8" y="157.4" width="5.7" height="2.6" fill="#c47f1a"/><rect class="barre" x="398.9" y="158.0" width="5.7" height="2.0" fill="#c47f1a"/><rect class="barre" x="406.0" y="151.2" width="5.7" height="8.8" fill="#c47f1a"/><rect class="barre" x="413.2" y="159.6" width="5.7" height="0.4" fill="#c47f1a"/><rect class="barre" x="420.3" y="159.5" width="5.7" height="0.5" fill="#c47f1a"/><rect class="barre" x="427.4" y="158.3" width="5.7" height="1.7" fill="#c47f1a"/><rect class="barre" x="434.5" y="153.4" width="5.7" height="6.6" fill="#c47f1a"/><rect class="barre" x="441.6" y="157.3" width="5.7" height="2.7" fill="#c47f1a"/><rect class="barre" x="448.7" y="153.0" width="5.7" height="7.0" fill="#c47f1a"/><rect class="barre" x="455.8" y="156.4" width="5.7" height="3.6" fill="#c47f1a"/><rect class="barre" x="462.9" y="148.6" width="5.7" height="11.4" fill="#c47f1a"/><rect class="barre" x="470.0" y="157.1" width="5.7" height="2.9" fill="#c47f1a"/><rect class="barre" x="477.2" y="139.7" width="5.7" height="20.3" fill="#c47f1a"/><rect class="barre" x="484.3" y="159.3" width="5.7" height="0.7" fill="#c47f1a"/><rect class="barre" x="491.4" y="159.1" width="5.7" height="0.9" fill="#c47f1a"/><rect class="barre" x="498.5" y="159.2" width="5.7" height="0.8" fill="#c47f1a"/><rect class="barre" x="505.6" y="157.0" width="5.7" height="3.0" fill="#c47f1a"/><rect class="barre" x="512.7" y="159.3" width="5.7" height="0.7" fill="#c47f1a"/><rect class="barre" x="519.8" y="158.8" width="5.7" height="1.2" fill="#c47f1a"/><rect class="barre" x="526.9" y="144.0" width="5.7" height="16.0" fill="#c47f1a"/><rect class="barre" x="534.0" y="136.4" width="5.7" height="23.6" fill="#c47f1a"/><rect class="barre" x="541.2" y="145.4" width="5.7" height="14.6" fill="#c47f1a"/><rect class="barre" x="548.3" y="155.2" width="5.7" height="4.8" fill="#c47f1a"/><rect class="barre" x="555.4" y="143.6" width="5.7" height="16.4" fill="#c47f1a"/><rect class="barre" x="562.5" y="153.4" width="5.7" height="6.6" fill="#c47f1a"/><rect class="barre" x="569.6" y="157.1" width="5.7" height="2.9" fill="#c47f1a"/><rect class="barre" x="576.7" y="159.3" width="5.7" height="0.7" fill="#c47f1a"/><rect class="barre" x="583.8" y="159.1" width="5.7" height="0.9" fill="#c47f1a"/><rect class="barre" x="590.9" y="158.7" width="5.7" height="1.3" fill="#c47f1a"/><rect class="barre" x="598.0" y="159.2" width="5.7" height="0.8" fill="#c47f1a"/><rect class="barre" x="605.2" y="156.7" width="5.7" height="3.3" fill="#c47f1a"/><rect class="barre" x="612.3" y="157.1" width="5.7" height="2.9" fill="#c47f1a"/><rect class="barre" x="619.4" y="158.6" width="5.7" height="1.4" fill="#c47f1a"/><rect class="barre" x="626.5" y="24.0" width="5.7" height="136.0" fill="#c47f1a"/><rect class="barre" x="633.6" y="128.9" width="5.7" height="31.1" fill="#c47f1a"/><rect x="0" y="159" width="640" height="1" fill="#7d8796"/></svg>
