<svg xmlns="http://www.w3.org/2000/svg" viewBox="0 0 640 160"><text x="0" y="16" font-family="system-ui,sans-serif" font-size="14" fill="#7d8796">≈95,0M (94 966 950) tokens</text><rect class="barre" x="0.7" y="143.7" width="5.8" height="16.3" fill="#c47f1a"/><rect class="barre" x="8.0" y="148.8" width="5.8" height="11.2" fill="#c47f1a"/><rect class="barre" x="15.3" y="136.8" width="5.8" height="23.2" fill="#c47f1a"/><rect class="barre" x="22.5" y="152.3" width="5.8" height="7.7" fill="#c47f1a"/><rect class="barre" x="29.8" y="143.0" width="5.8" height="17.0" fill="#c47f1a"/><rect class="barre" x="37.1" y="135.4" width="5.8" height="24.6" fill="#c47f1a"/><rect class="barre" x="44.4" y="135.8" width="5.8" height="24.2" fill="#c47f1a"/><rect class="barre" x="51.6" y="132.3" width="5.8" height="27.7" fill="#c47f1a"/><rect class="barre" x="58.9" y="149.7" width="5.8" height="10.3" fill="#c47f1a"/><rect class="barre" x="66.2" y="150.6" width="5.8" height="9.4" fill="#c47f1a"/><rect class="barre" x="73.5" y="151.1" width="5.8" height="8.9" fill="#c47f1a"/><rect class="barre" x="80.7" y="149.3" width="5.8" height="10.7" fill="#c47f1a"/><rect class="barre" x="88.0" y="148.5" width="5.8" height="11.5" fill="#c47f1a"/><rect class="barre" x="95.3" y="148.5" width="5.8" height="11.5" fill="#c47f1a"/><rect class="barre" x="102.5" y="151.2" width="5.8" height="8.8" fill="#c47f1a"/><rect class="barre" x="109.8" y="148.3" width="5.8" height="11.7" fill="#c47f1a"/><rect class="barre" x="117.1" y="149.5" width="5.8" height="10.5" fill="#c47f1a"/><rect class="barre" x="124.4" y="142.7" width="5.8" height="17.3" fill="#c47f1a"/><rect class="barre" x="131.6" y="147.4" width="5.8" height="12.6" fill="#c47f1a"/><rect class="barre" x="138.9" y="145.9" width="5.8" height="14.1" fill="#c47f1a"/><rect class="barre" x="146.2" y="149.1" width="5.8" height="10.9" fill="#c47f1a"/><rect class="barre" x="153.5" y="123.2" width="5.8" height="36.8" fill="#c47f1a"/><rect class="barre" x="160.7" y="134.5" width="5.8" height="25.5" fill="#c47f1a"/><rect class="barre" x="168.0" y="123.7" width="5.8" height="36.3" fill="#c47f1a"/><rect class="barre" x="175.3" y="144.1" width="5.8" height="15.9" fill="#c47f1a"/><rect class="barre" x="182.5" y="124.2" width="5.8" height="35.8" fill="#c47f1a"/><rect class="barre" x="189.8" y="112.6" width="5.8" height="47.4" fill="#c47f1a"/><rect class="barre" x="197.1" y="130.6" width="5.8" height="29.4" fill="#c47f1a"/><rect class="barre" x="204.4" y="129.1" width="5.8" height="30.9" fill="#c47f1a"/><rect class="barre" x="211.6" y="131.2" width="5.8" height="28.8" fill="#c47f1a"/><rect class="barre" x="218.9" y="144.8" width="5.8" height="15.2" fill="#c47f1a"/><rect class="barre" x="226.2" y="150.7" width="5.8" height="9.3" fill="#c47f1a"/><rect class="barre" x="233.5" y="127.8" width="5.8" height="32.2" fill="#c47f1a"/><rect class="barre" x="240.7" y="133.1" width="5.8" height="26.9" fill="#c47f1a"/><rect class="barre" x="248.0" y="142.0" width="5.8" height="18.0" fill="#c47f1a"/><rect class="barre" x="255.3" y="141.8" width="5.8" height="18.2" fill="#c47f1a"/><rect class="barre" x="262.5" y="138.3" width="5.8" height="21.7" fill="#c47f1a"/><rect class="barre" x="269.8" y="143.3" width="5.8" height="16.7" fill="#c47f1a"/><rect class="barre" x="277.1" y="51.4" width="5.8" height="108.6" fill="#c47f1a"/><rect class="barre" x="284.4" y="139.0" width="5.8" height="21.0" fill="#c47f1a"/><rect class="barre" x="291.6" y="138.3" width="5.8" height="21.7" fill="#c47f1a"/><rect class="barre" x="298.9" y="148.7" width="5.8" height="11.3" fill="#c47f1a"/><rect class="barre" x="306.2" y="137.2" width="5.8" height="22.8" fill="#c47f1a"/><rect class="barre" x="313.5" y="143.4" width="5.8" height="16.6" fill="#c47f1a"/><rect class="barre" x="320.7" y="147.5" width="5.8" height="12.5" fill="#c47f1a"/><rect class="barre" x="328.0" y="134.7" width="5.8" height="25.3" fill="#c47f1a"/><rect class="barre" x="335.3" y="145.3" width="5.8" height="14.7" fill="#c47f1a"/><rect class="barre" x="342.5" y="137.2" width="5.8" height="22.8" fill="#c47f1a"/><rect class="barre" x="349.8" y="142.5" width="5.8" height="17.5" fill="#c47f1a"/><rect class="barre" x="357.1" y="136.0" width="5.8" height="24.0" fill="#c47f1a"/><rect class="barre" x="364.4" y="140.2" width="5.8" height="19.8" fill="#c47f1a"/><rect class="barre" x="371.6" y="101.1" width="5.8" height="58.9" fill="#c47f1a"/><rect class="barre" x="378.9" y="135.3" width="5.8" height="24.7" fill="#c47f1a"/><rect class="barre" x="386.2" y="148.0" width="5.8" height="12.0" fill="#c47f1a"/><rect class="barre" x="393.5" y="149.5" width="5.8" height="10.5" fill="#c47f1a"/><rect class="barre" x="400.7" y="144.8" width="5.8" height="15.2" fill="#c47f1a"/><rect class="barre" x="408.0" y="148.3" width="5.8" height="11.7" fill="#c47f1a"/><rect class="barre" x="415.3" y="109.0" width="5.8" height="51.0" fill="#c47f1a"/><rect class="barre" x="422.5" y="157.6" width="5.8" height="2.4" fill="#c47f1a"/><rect class="barre" x="429.8" y="157.2" width="5.8" height="2.8" fill="#c47f1a"/><rect class="barre" x="437.1" y="150.0" width="5.8" height="10.0" fill="#c47f1a"/><rect class="barre" x="444.4" y="121.7" width="5.8" height="38.3" fill="#c47f1a"/><rect class="barre" x="451.6" y="144.6" width="5.8" height="15.4" fill="#c47f1a"/><rect class="barre" x="458.9" y="119.8" width="5.8" height="40.2" fill="#c47f1a"/><rect class="barre" x="466.2" y="139.3" width="5.8" height="20.7" fill="#c47f1a"/><rect class="barre" x="473.5" y="94.1" width="5.8" height="65.9" fill="#c47f1a"/><rect class="barre" x="480.7" y="143.0" width="5.8" height="17.0" fill="#c47f1a"/><rect class="barre" x="488.0" y="43.0" width="5.8" height="117.0" fill="#c47f1a"/><rect class="barre" x="495.3" y="155.7" width="5.8" height="4.3" fill="#c47f1a"/><rect class="barre" x="502.5" y="154.8" width="5.8" height="5.2" fill="#c47f1a"/><rect class="barre" x="509.8" y="155.5" width="5.8" height="4.5" fill="#c47f1a"/><rect class="barre" x="517.1" y="142.7" width="5.8" height="17.3" fill="#c47f1a"/><rect class="barre" x="524.4" y="155.7" width="5.8" height="4.3" fill="#c47f1a"/><rect class="barre" x="531.6" y="152.9" width="5.8" height="7.1" fill="#c47f1a"/><rect class="barre" x="538.9" y="67.7" width="5.8" height="92.3" fill="#c47f1a"/><rect class="barre" x="546.2" y="24.0" width="5.8" height="136.0" fill="#c47f1a"/><rect class="barre" x="553.5" y="75.8" width="5.8" height="84.2" fill="#c47f1a"/><rect class="barre" x="560.7" y="132.3" width="5.8" height="27.7" fill="#c47f1a"/><rect class="barre" x="568.0" y="65.1" width="5.8" height="94.9" fill="#c47f1a"/><rect class="barre" x="575.3" y="121.9" width="5.8" height="38.1" fill="#c47f1a"/><rect class="barre" x="582.5" y="143.1" width="5.8" height="16.9" fill="#c47f1a"/><rect class="barre" x="589.8" y="156.0" width="5.8" height="4.0" fill="#c47f1a"/><rect class="barre" x="597.1" y="154.7" width="5.8" height="5.3" fill="#c47f1a"/><rect class="barre" x="604.4" y="152.7" width="5.8" height="7.3" fill="#c47f1a"/><rect class="barre" x="611.6" y="155.6" width="5.8" height="4.4" fill="#c47f1a"/><rect class="barre" x="618.9" y="140.9" width="5.8" height="19.1" fill="#c47f1a"/><rect class="barre" x="626.2" y="143.3" width="5.8" height="16.7" fill="#c47f1a"/><rect class="barre" x="633.5" y="152.1" width="5.8" height="7.9" fill="#c47f1a"/><rect x="0" y="159" width="640" height="1" fill="#7d8796"/></svg>
