<svg xmlns="http://www.w3.org/2000/svg" viewBox="0 0 640 160"><text x="0" y="16" font-family="system-ui,sans-serif" font-size="14" fill="#7d8796">≈548,1M (548 102 468) tokens</text><rect class="barre" x="0.6" y="157.2" width="5.1" height="2.8" fill="#c47f1a"/><rect class="barre" x="7.0" y="158.1" width="5.1" height="1.9" fill="#c47f1a"/><rect class="barre" x="13.4" y="156.0" width="5.1" height="4.0" fill="#c47f1a"/><rect class="barre" x="19.8" y="158.7" width="5.1" height="1.3" fill="#c47f1a"/><rect class="barre" x="26.2" y="157.1" width="5.1" height="2.9" fill="#c47f1a"/><rect class="barre" x="32.6" y="155.7" width="5.1" height="4.3" fill="#c47f1a"/><rect class="barre" x="39.0" y="155.8" width="5.1" height="4.2" fill="#c47f1a"/><rect class="barre" x="45.4" y="155.2" width="5.1" height="4.8" fill="#c47f1a"/><rect class="barre" x="51.8" y="158.2" width="5.1" height="1.8" fill="#c47f1a"/><rect class="barre" x="58.2" y="158.4" width="5.1" height="1.6" fill="#c47f1a"/><rect class="barre" x="64.6" y="158.5" width="5.1" height="1.5" fill="#c47f1a"/><rect class="barre" x="71.0" y="158.2" width="5.1" height="1.8" fill="#c47f1a"/><rect class="barre" x="77.4" y="158.0" width="5.1" height="2.0" fill="#c47f1a"/><rect class="barre" x="83.8" y="158.0" width="5.1" height="2.0" fill="#c47f1a"/><rect class="barre" x="90.2" y="158.5" width="5.1" height="1.5" fill="#c47f1a"/><rect class="barre" x="96.6" y="158.0" width="5.1" height="2.0" fill="#c47f1a"/><rect class="barre" x="103.0" y="158.2" width="5.1" height="1.8" fill="#c47f1a"/><rect class="barre" x="109.4" y="157.0" width="5.1" height="3.0" fill="#c47f1a"/><rect class="barre" x="115.8" y="157.8" width="5.1" height="2.2" fill="#c47f1a"/><rect class="barre" x="122.2" y="157.6" width="5.1" height="2.4" fill="#c47f1a"/><rect class="barre" x="128.6" y="158.1" width="5.1" height="1.9" fill="#c47f1a"/><rect class="barre" x="135.0" y="153.6" width="5.1" height="6.4" fill="#c47f1a"/><rect class="barre" x="141.4" y="155.6" width="5.1" height="4.4" fill="#c47f1a"/><rect class="barre" x="147.8" y="153.7" width="5.1" height="6.3" fill="#c47f1a"/><rect class="barre" x="154.2" y="157.2" width="5.1" height="2.8" fill="#c47f1a"/><rect class="barre" x="160.6" y="153.8" width="5.1" height="6.2" fill="#c47f1a"/><rect class="barre" x="167.0" y="151.8" width="5.1" height="8.2" fill="#c47f1a"/><rect class="barre" x="173.4" y="154.9" width="5.1" height="5.1" fill="#c47f1a"/><rect class="barre" x="179.8" y="154.7" width="5.1" height="5.3" fill="#c47f1a"/><rect class="barre" x="186.2" y="155.0" width="5.1" height="5.0" fill="#c47f1a"/><rect class="barre" x="192.6" y="157.4" width="5.1" height="2.6" fill="#c47f1a"/><rect class="barre" x="199.0" y="158.4" width="5.1" height="1.6" fill="#c47f1a"/><rect class="barre" x="205.4" y="154.4" width="5.1" height="5.6" fill="#c47f1a"/><rect class="barre" x="211.8" y="155.3" width="5.1" height="4.7" fill="#c47f1a"/><rect class="barre" x="218.2" y="156.9" width="5.1" height="3.1" fill="#c47f1a"/><rect class="barre" x="224.6" y="156.8" width="5.1" height="3.2" fill="#c47f1a"/><rect class="barre" x="231.0" y="156.2" width="5.1" height="3.8" fill="#c47f1a"/><rect class="barre" x="237.4" y="157.1" width="5.1" height="2.9" fill="#c47f1a"/><rect class="barre" x="243.8" y="141.2" width="5.1" height="18.8" fill="#c47f1a"/><rect class="barre" x="250.2" y="156.4" width="5.1" height="3.6" fill="#c47f1a"/><rect class="barre" x="256.6" y="156.2" width="5.1" height="3.8" fill="#c47f1a"/><rect class="barre" x="263.0" y="158.0" width="5.1" height="2.0" fill="#c47f1a"/><rect class="barre" x="269.4" y="156.0" width="5.1" height="4.0" fill="#c47f1a"/><rect class="barre" x="275.8" y="157.1" width="5.1" height="2.9" fill="#c47f1a"/><rect class="barre" x="282.2" y="157.8" width="5.1" height="2.2" fill="#c47f1a"/><rect class="barre" x="288.6" y="155.6" width="5.1" height="4.4" fill="#c47f1a"/><rect class="barre" x="295.0" y="157.5" width="5.1" height="2.5" fill="#c47f1a"/><rect class="barre" x="301.4" y="156.1" width="5.1" height="3.9" fill="#c47f1a"/><rect class="barre" x="307.8" y="157.0" width="5.1" height="3.0" fill="#c47f1a"/><rect class="barre" x="314.2" y="155.8" width="5.1" height="4.2" fill="#c47f1a"/><rect class="barre" x="320.6" y="156.6" width="5.1" height="3.4" fill="#c47f1a"/><rect class="barre" x="327.0" y="149.8" width="5.1" height="10.2" fill="#c47f1a"/><rect class="barre" x="333.4" y="155.7" width="5.1" height="4.3" fill="#c47f1a"/><rect class="barre" x="339.8" y="157.9" width="5.1" height="2.1" fill="#c47f1a"/><rect class="barre" x="346.2" y="158.2" width="5.1" height="1.8" fill="#c47f1a"/><rect class="barre" x="352.6" y="157.4" width="5.1" height="2.6" fill="#c47f1a"/><rect class="barre" x="359.0" y="158.0" width="5.1" height="2.0" fill="#c47f1a"/><rect class="barre" x="365.4" y="151.2" width="5.1" height="8.8" fill="#c47f1a"/><rect class="barre" x="371.8" y="159.6" width="5.1" height="0.4" fill="#c47f1a"/><rect class="barre" x="378.2" y="159.5" width="5.1" height="0.5" fill="#c47f1a"/><rect class="barre" x="384.6" y="158.3" width="5.1" height="1.7" fill="#c47f1a"/><rect class="barre" x="391.0" y="153.4" width="5.1" height="6.6" fill="#c47f1a"/><rect class="barre" x="397.4" y="157.3" width="5.1" height="2.7" fill="#c47f1a"/><rect class="barre" x="403.8" y="153.0" width="5.1" height="7.0" fill="#c47f1a"/><rect class="barre" x="410.2" y="156.4" width="5.1" height="3.6" fill="#c47f1a"/><rect class="barre" x="416.6" y="148.6" width="5.1" height="11.4" fill="#c47f1a"/><rect class="barre" x="423.0" y="157.1" width="5.1" height="2.9" fill="#c47f1a"/><rect class="barre" x="429.4" y="139.7" width="5.1" height="20.3" fill="#c47f1a"/><rect class="barre" x="435.8" y="159.3" width="5.1" height="0.7" fill="#c47f1a"/><rect class="barre" x="442.2" y="159.1" width="5.1" height="0.9" fill="#c47f1a"/><rect class="barre" x="448.6" y="159.2" width="5.1" height="0.8" fill="#c47f1a"/><rect class="barre" x="455.0" y="157.0" width="5.1" height="3.0" fill="#c47f1a"/><rect class="barre" x="461.4" y="159.3" width="5.1" height="0.7" fill="#c47f1a"/><rect class="barre" x="467.8" y="158.8" width="5.1" height="1.2" fill="#c47f1a"/><rect class="barre" x="474.2" y="144.0" width="5.1" height="16.0" fill="#c47f1a"/><rect class="barre" x="480.6" y="136.4" width="5.1" height="23.6" fill="#c47f1a"/><rect class="barre" x="487.0" y="145.4" width="5.1" height="14.6" fill="#c47f1a"/><rect class="barre" x="493.4" y="155.2" width="5.1" height="4.8" fill="#c47f1a"/><rect class="barre" x="499.8" y="143.6" width="5.1" height="16.4" fill="#c47f1a"/><rect class="barre" x="506.2" y="153.4" width="5.1" height="6.6" fill="#c47f1a"/><rect class="barre" x="512.6" y="157.1" width="5.1" height="2.9" fill="#c47f1a"/><rect class="barre" x="519.0" y="159.3" width="5.1" height="0.7" fill="#c47f1a"/><rect class="barre" x="525.4" y="159.1" width="5.1" height="0.9" fill="#c47f1a"/><rect class="barre" x="531.8" y="158.7" width="5.1" height="1.3" fill="#c47f1a"/><rect class="barre" x="538.2" y="159.2" width="5.1" height="0.8" fill="#c47f1a"/><rect class="barre" x="544.6" y="156.7" width="5.1" height="3.3" fill="#c47f1a"/><rect class="barre" x="551.0" y="157.1" width="5.1" height="2.9" fill="#c47f1a"/><rect class="barre" x="557.4" y="158.6" width="5.1" height="1.4" fill="#c47f1a"/><rect class="barre" x="563.8" y="24.0" width="5.1" height="136.0" fill="#c47f1a"/><rect class="barre" x="570.2" y="128.9" width="5.1" height="31.1" fill="#c47f1a"/><rect class="barre" x="576.6" y="155.3" width="5.1" height="4.7" fill="#c47f1a"/><rect class="barre" x="583.0" y="159.0" width="5.1" height="1.0" fill="#c47f1a"/><rect class="barre" x="589.4" y="62.1" width="5.1" height="97.9" fill="#c47f1a"/><rect class="barre" x="595.8" y="158.0" width="5.1" height="2.0" fill="#c47f1a"/><rect class="barre" x="602.2" y="158.4" width="5.1" height="1.6" fill="#c47f1a"/><rect class="barre" x="608.6" y="159.0" width="5.1" height="1.0" fill="#c47f1a"/><rect class="barre" x="615.0" y="158.7" width="5.1" height="1.3" fill="#c47f1a"/><rect class="barre" x="621.4" y="154.3" width="5.1" height="5.7" fill="#c47f1a"/><rect class="barre" x="627.8" y="159.1" width="5.1" height="0.9" fill="#c47f1a"/><rect class="barre" x="634.2" y="158.9" width="5.1" height="1.1" fill="#c47f1a"/><rect x="0" y="159" width="640" height="1" fill="#7d8796"/></svg>
