<svg xmlns="http://www.w3.org/2000/svg" viewBox="0 0 640 160"><text x="0" y="16" font-family="system-ui,sans-serif" font-size="14" fill="#7d8796">≈548,1M (548 102 468) tokens</text><rect class="barre" x="0.7" y="157.2" width="5.6" height="2.8" fill="#c47f1a"/><rect class="barre" x="7.7" y="158.1" width="5.6" height="1.9" fill="#c47f1a"/><rect class="barre" x="14.8" y="156.0" width="5.6" height="4.0" fill="#c47f1a"/><rect class="barre" x="21.8" y="158.7" width="5.6" height="1.3" fill="#c47f1a"/><rect class="barre" x="28.8" y="157.1" width="5.6" height="2.9" fill="#c47f1a"/><rect class="barre" x="35.9" y="155.7" width="5.6" height="4.3" fill="#c47f1a"/><rect class="barre" x="42.9" y="155.8" width="5.6" height="4.2" fill="#c47f1a"/><rect class="barre" x="49.9" y="155.2" width="5.6" height="4.8" fill="#c47f1a"/><rect class="barre" x="57.0" y="158.2" width="5.6" height="1.8" fill="#c47f1a"/><rect class="barre" x="64.0" y="158.4" width="5.6" height="1.6" fill="#c47f1a"/><rect class="barre" x="71.0" y="158.5" width="5.6" height="1.5" fill="#c47f1a"/><rect class="barre" x="78.1" y="158.2" width="5.6" height="1.8" fill="#c47f1a"/><rect class="barre" x="85.1" y="158.0" width="5.6" height="2.0" fill="#c47f1a"/><rect class="barre" x="92.1" y="158.0" width="5.6" height="2.0" fill="#c47f1a"/><rect class="barre" x="99.2" y="158.5" width="5.6" height="1.5" fill="#c47f1a"/><rect class="barre" x="106.2" y="158.0" width="5.6" height="2.0" fill="#c47f1a"/><rect class="barre" x="113.2" y="158.2" width="5.6" height="1.8" fill="#c47f1a"/><rect class="barre" x="120.3" y="157.0" width="5.6" height="3.0" fill="#c47f1a"/><rect class="barre" x="127.3" y="157.8" width="5.6" height="2.2" fill="#c47f1a"/><rect class="barre" x="134.3" y="157.6" width="5.6" height="2.4" fill="#c47f1a"/><rect class="barre" x="141.4" y="158.1" width="5.6" height="1.9" fill="#c47f1a"/><rect class="barre" x="148.4" y="153.6" width="5.6" height="6.4" fill="#c47f1a"/><rect class="barre" x="155.4" y="155.6" width="5.6" height="4.4" fill="#c47f1a"/><rect class="barre" x="162.5" y="153.7" width="5.6" height="6.3" fill="#c47f1a"/><rect class="barre" x="169.5" y="157.2" width="5.6" height="2.8" fill="#c47f1a"/><rect class="barre" x="176.5" y="153.8" width="5.6" height="6.2" fill="#c47f1a"/><rect class="barre" x="183.6" y="151.8" width="5.6" height="8.2" fill="#c47f1a"/><rect class="barre" x="190.6" y="154.9" width="5.6" height="5.1" fill="#c47f1a"/><rect class="barre" x="197.6" y="154.7" width="5.6" height="5.3" fill="#c47f1a"/><rect class="barre" x="204.7" y="155.0" width="5.6" height="5.0" fill="#c47f1a"/><rect class="barre" x="211.7" y="157.4" width="5.6" height="2.6" fill="#c47f1a"/><rect class="barre" x="218.7" y="158.4" width="5.6" height="1.6" fill="#c47f1a"/><rect class="barre" x="225.8" y="154.4" width="5.6" height="5.6" fill="#c47f1a"/><rect class="barre" x="232.8" y="155.3" width="5.6" height="4.7" fill="#c47f1a"/><rect class="barre" x="239.8" y="156.9" width="5.6" height="3.1" fill="#c47f1a"/><rect class="barre" x="246.9" y="156.8" width="5.6" height="3.2" fill="#c47f1a"/><rect class="barre" x="253.9" y="156.2" width="5.6" height="3.8" fill="#c47f1a"/><rect class="barre" x="260.9" y="157.1" width="5.6" height="2.9" fill="#c47f1a"/><rect class="barre" x="268.0" y="141.2" width="5.6" height="18.8" fill="#c47f1a"/><rect class="barre" x="275.0" y="156.4" width="5.6" height="3.6" fill="#c47f1a"/><rect class="barre" x="282.0" y="156.2" width="5.6" height="3.8" fill="#c47f1a"/><rect class="barre" x="289.1" y="158.0" width="5.6" height="2.0" fill="#c47f1a"/><rect class="barre" x="296.1" y="156.0" width="5.6" height="4.0" fill="#c47f1a"/><rect class="barre" x="303.1" y="157.1" width="5.6" height="2.9" fill="#c47f1a"/><rect class="barre" x="310.2" y="157.8" width="5.6" height="2.2" fill="#c47f1a"/><rect class="barre" x="317.2" y="155.6" width="5.6" height="4.4" fill="#c47f1a"/><rect class="barre" x="324.2" y="157.5" width="5.6" height="2.5" fill="#c47f1a"/><rect class="barre" x="331.3" y="156.1" width="5.6" height="3.9" fill="#c47f1a"/><rect class="barre" x="338.3" y="157.0" width="5.6" height="3.0" fill="#c47f1a"/><rect class="barre" x="345.3" y="155.8" width="5.6" height="4.2" fill="#c47f1a"/><rect class="barre" x="352.4" y="156.6" width="5.6" height="3.4" fill="#c47f1a"/><rect class="barre" x="359.4" y="149.8" width="5.6" height="10.2" fill="#c47f1a"/><rect class="barre" x="366.4" y="155.7" width="5.6" height="4.3" fill="#c47f1a"/><rect class="barre" x="373.5" y="157.9" width="5.6" height="2.1" fill="#c47f1a"/><rect class="barre" x="380.5" y="158.2" width="5.6" height="1.8" fill="#c47f1a"/><rect class="barre" x="387.5" y="157.4" width="5.6" height="2.6" fill="#c47f1a"/><rect class="barre" x="394.5" y="158.0" width="5.6" height="2.0" fill="#c47f1a"/><rect class="barre" x="401.6" y="151.2" width="5.6" height="8.8" fill="#c47f1a"/><rect class="barre" x="408.6" y="159.6" width="5.6" height="0.4" fill="#c47f1a"/><rect class="barre" x="415.6" y="159.5" width="5.6" height="0.5" fill="#c47f1a"/><rect class="barre" x="422.7" y="158.3" width="5.6" height="1.7" fill="#c47f1a"/><rect class="barre" x="429.7" y="153.4" width="5.6" height="6.6" fill="#c47f1a"/><rect class="barre" x="436.7" y="157.3" width="5.6" height="2.7" fill="#c47f1a"/><rect class="barre" x="443.8" y="153.0" width="5.6" height="7.0" fill="#c47f1a"/><rect class="barre" x="450.8" y="156.4" width="5.6" height="3.6" fill="#c47f1a"/><rect class="barre" x="457.8" y="148.6" width="5.6" height="11.4" fill="#c47f1a"/><rect class="barre" x="464.9" y="157.1" width="5.6" height="2.9" fill="#c47f1a"/><rect class="barre" x="471.9" y="139.7" width="5.6" height="20.3" fill="#c47f1a"/><rect class="barre" x="478.9" y="159.3" width="5.6" height="0.7" fill="#c47f1a"/><rect class="barre" x="486.0" y="159.1" width="5.6" height="0.9" fill="#c47f1a"/><rect class="barre" x="493.0" y="159.2" width="5.6" height="0.8" fill="#c47f1a"/><rect class="barre" x="500.0" y="157.0" width="5.6" height="3.0" fill="#c47f1a"/><rect class="barre" x="507.1" y="159.3" width="5.6" height="0.7" fill="#c47f1a"/><rect class="barre" x="514.1" y="158.8" width="5.6" height="1.2" fill="#c47f1a"/><rect class="barre" x="521.1" y="144.0" width="5.6" height="16.0" fill="#c47f1a"/><rect class="barre" x="528.2" y="136.4" width="5.6" height="23.6" fill="#c47f1a"/><rect class="barre" x="535.2" y="145.4" width="5.6" height="14.6" fill="#c47f1a"/><rect class="barre" x="542.2" y="155.2" width="5.6" height="4.8" fill="#c47f1a"/><rect class="barre" x="549.3" y="143.6" width="5.6" height="16.4" fill="#c47f1a"/><rect class="barre" x="556.3" y="153.4" width="5.6" height="6.6" fill="#c47f1a"/><rect class="barre" x="563.3" y="157.1" width="5.6" height="2.9" fill="#c47f1a"/><rect class="barre" x="570.4" y="159.3" width="5.6" height="0.7" fill="#c47f1a"/><rect class="barre" x="577.4" y="159.1" width="5.6" height="0.9" fill="#c47f1a"/><rect class="barre" x="584.4" y="158.7" width="5.6" height="1.3" fill="#c47f1a"/><rect class="barre" x="591.5" y="159.2" width="5.6" height="0.8" fill="#c47f1a"/><rect class="barre" x="598.5" y="156.7" width="5.6" height="3.3" fill="#c47f1a"/><rect class="barre" x="605.5" y="157.1" width="5.6" height="2.9" fill="#c47f1a"/><rect class="barre" x="612.6" y="158.6" width="5.6" height="1.4" fill="#c47f1a"/><rect class="barre" x="619.6" y="24.0" width="5.6" height="136.0" fill="#c47f1a"/><rect class="barre" x="626.6" y="128.9" width="5.6" height="31.1" fill="#c47f1a"/><rect class="barre" x="633.7" y="155.3" width="5.6" height="4.7" fill="#c47f1a"/><rect x="0" y="159" width="640" height="1" fill="#7d8796"/></svg>
