<svg xmlns="http://www.w3.org/2000/svg" viewBox="0 0 640 160"><text x="0" y="16" font-family="system-ui,sans-serif" font-size="14" fill="#7d8796">≈95,0M (94 966 950) tokens</text><rect class="barre" x="0.8" y="143.7" width="6.3" height="16.3" fill="#c47f1a"/><rect class="barre" x="8.7" y="148.8" width="6.3" height="11.2" fill="#c47f1a"/><rect class="barre" x="16.6" y="136.8" width="6.3" height="23.2" fill="#c47f1a"/><rect class="barre" x="24.5" y="152.3" width="6.3" height="7.7" fill="#c47f1a"/><rect class="barre" x="32.4" y="143.0" width="6.3" height="17.0" fill="#c47f1a"/><rect class="barre" x="40.3" y="135.4" width="6.3" height="24.6" fill="#c47f1a"/><rect class="barre" x="48.2" y="135.8" width="6.3" height="24.2" fill="#c47f1a"/><rect class="barre" x="56.1" y="132.3" width="6.3" height="27.7" fill="#c47f1a"/><rect class="barre" x="64.0" y="149.7" width="6.3" height="10.3" fill="#c47f1a"/><rect class="barre" x="71.9" y="150.6" width="6.3" height="9.4" fill="#c47f1a"/><rect class="barre" x="79.8" y="151.1" width="6.3" height="8.9" fill="#c47f1a"/><rect class="barre" x="87.7" y="149.3" width="6.3" height="10.7" fill="#c47f1a"/><rect class="barre" x="95.6" y="148.5" width="6.3" height="11.5" fill="#c47f1a"/><rect class="barre" x="103.5" y="148.5" width="6.3" height="11.5" fill="#c47f1a"/><rect class="barre" x="111.4" y="151.2" width="6.3" height="8.8" fill="#c47f1a"/><rect class="barre" x="119.3" y="148.3" width="6.3" height="11.7" fill="#c47f1a"/><rect class="barre" x="127.2" y="149.5" width="6.3" height="10.5" fill="#c47f1a"/><rect class="barre" x="135.1" y="142.7" width="6.3" height="17.3" fill="#c47f1a"/><rect class="barre" x="143.0" y="147.4" width="6.3" height="12.6" fill="#c47f1a"/><rect class="barre" x="150.9" y="145.9" width="6.3" height="14.1" fill="#c47f1a"/><rect class="barre" x="158.8" y="149.1" width="6.3" height="10.9" fill="#c47f1a"/><rect class="barre" x="166.7" y="123.2" width="6.3" height="36.8" fill="#c47f1a"/><rect class="barre" x="174.6" y="134.5" width="6.3" height="25.5" fill="#c47f1a"/><rect class="barre" x="182.5" y="123.7" width="6.3" height="36.3" fill="#c47f1a"/><rect class="barre" x="190.4" y="144.1" width="6.3" height="15.9" fill="#c47f1a"/><rect class="barre" x="198.3" y="124.2" width="6.3" height="35.8" fill="#c47f1a"/><rect class="barre" x="206.2" y="112.6" width="6.3" height="47.4" fill="#c47f1a"/><rect class="barre" x="214.1" y="130.6" width="6.3" height="29.4" fill="#c47f1a"/><rect class="barre" x="222.0" y="129.1" width="6.3" height="30.9" fill="#c47f1a"/><rect class="barre" x="229.9" y="131.2" width="6.3" height="28.8" fill="#c47f1a"/><rect class="barre" x="237.8" y="144.8" width="6.3" height="15.2" fill="#c47f1a"/><rect class="barre" x="245.7" y="150.7" width="6.3" height="9.3" fill="#c47f1a"/><rect class="barre" x="253.6" y="127.8" width="6.3" height="32.2" fill="#c47f1a"/><rect class="barre" x="261.5" y="133.1" width="6.3" height="26.9" fill="#c47f1a"/><rect class="barre" x="269.4" y="142.0" width="6.3" height="18.0" fill="#c47f1a"/><rect class="barre" x="277.3" y="141.8" width="6.3" height="18.2" fill="#c47f1a"/><rect class="barre" x="285.2" y="138.3" width="6.3" height="21.7" fill="#c47f1a"/><rect class="barre" x="293.1" y="143.3" width="6.3" height="16.7" fill="#c47f1a"/><rect class="barre" x="301.0" y="51.4" width="6.3" height="108.6" fill="#c47f1a"/><rect class="barre" x="308.9" y="139.0" width="6.3" height="21.0" fill="#c47f1a"/><rect class="barre" x="316.8" y="138.3" width="6.3" height="21.7" fill="#c47f1a"/><rect class="barre" x="324.7" y="148.7" width="6.3" height="11.3" fill="#c47f1a"/><rect class="barre" x="332.6" y="137.2" width="6.3" height="22.8" fill="#c47f1a"/><rect class="barre" x="340.5" y="143.4" width="6.3" height="16.6" fill="#c47f1a"/><rect class="barre" x="348.4" y="147.5" width="6.3" height="12.5" fill="#c47f1a"/><rect class="barre" x="356.3" y="134.7" width="6.3" height="25.3" fill="#c47f1a"/><rect class="barre" x="364.2" y="145.3" width="6.3" height="14.7" fill="#c47f1a"/><rect class="barre" x="372.1" y="137.2" width="6.3" height="22.8" fill="#c47f1a"/><rect class="barre" x="380.0" y="142.5" width="6.3" height="17.5" fill="#c47f1a"/><rect class="barre" x="388.0" y="136.0" width="6.3" height="24.0" fill="#c47f1a"/><rect class="barre" x="395.9" y="140.2" width="6.3" height="19.8" fill="#c47f1a"/><rect class="barre" x="403.8" y="101.1" width="6.3" height="58.9" fill="#c47f1a"/><rect class="barre" x="411.7" y="135.3" width="6.3" height="24.7" fill="#c47f1a"/><rect class="barre" x="419.6" y="148.0" width="6.3" height="12.0" fill="#c47f1a"/><rect class="barre" x="427.5" y="149.5" width="6.3" height="10.5" fill="#c47f1a"/><rect class="barre" x="435.4" y="144.8" width="6.3" height="15.2" fill="#c47f1a"/><rect class="barre" x="443.3" y="148.3" width="6.3" height="11.7" fill="#c47f1a"/><rect class="barre" x="451.2" y="109.0" width="6.3" height="51.0" fill="#c47f1a"/><rect class="barre" x="459.1" y="157.6" width="6.3" height="2.4" fill="#c47f1a"/><rect class="barre" x="467.0" y="157.2" width="6.3" height="2.8" fill="#c47f1a"/><rect class="barre" x="474.9" y="150.0" width="6.3" height="10.0" fill="#c47f1a"/><rect class="barre" x="482.8" y="121.7" width="6.3" height="38.3" fill="#c47f1a"/><rect class="barre" x="490.7" y="144.6" width="6.3" height="15.4" fill="#c47f1a"/><rect class="barre" x="498.6" y="119.8" width="6.3" height="40.2" fill="#c47f1a"/><rect class="barre" x="506.5" y="139.3" width="6.3" height="20.7" fill="#c47f1a"/><rect class="barre" x="514.4" y="94.1" width="6.3" height="65.9" fill="#c47f1a"/><rect class="barre" x="522.3" y="143.0" width="6.3" height="17.0" fill="#c47f1a"/><rect class="barre" x="530.2" y="43.0" width="6.3" height="117.0" fill="#c47f1a"/><rect class="barre" x="538.1" y="155.7" width="6.3" height="4.3" fill="#c47f1a"/><rect class="barre" x="546.0" y="154.8" width="6.3" height="5.2" fill="#c47f1a"/><rect class="barre" x="553.9" y="155.5" width="6.3" height="4.5" fill="#c47f1a"/><rect class="barre" x="561.8" y="142.7" width="6.3" height="17.3" fill="#c47f1a"/><rect class="barre" x="569.7" y="155.7" width="6.3" height="4.3" fill="#c47f1a"/><rect class="barre" x="577.6" y="152.9" width="6.3" height="7.1" fill="#c47f1a"/><rect class="barre" x="585.5" y="67.7" width="6.3" height="92.3" fill="#c47f1a"/><rect class="barre" x="593.4" y="24.0" width="6.3" height="136.0" fill="#c47f1a"/><rect class="barre" x="601.3" y="75.8" width="6.3" height="84.2" fill="#c47f1a"/><rect class="barre" x="609.2" y="132.3" width="6.3" height="27.7" fill="#c47f1a"/><rect class="barre" x="617.1" y="65.1" width="6.3" height="94.9" fill="#c47f1a"/><rect class="barre" x="625.0" y="121.9" width="6.3" height="38.1" fill="#c47f1a"/><rect class="barre" x="632.9" y="143.1" width="6.3" height="16.9" fill="#c47f1a"/><rect x="0" y="159" width="640" height="1" fill="#7d8796"/></svg>
